<svg width="192" height="37" viewBox="0 0 192 37" fill="none" xmlns="http://www.w3.org/2000/svg">
<g filter="url(#filter0_dd_50_45)">
<path fill-rule="evenodd" clip-rule="evenodd" d="M29.6725 3.05262H7.08771V25.3808H29.6725V3.05262ZM7.08771 0H4V3.05262V25.3808V28.4334H7.08771H29.6725H32.7602V25.3808V3.05262V0H29.6725H7.08771ZM24.9013 8.05166L24.3878 10.106C24.1744 10.9661 23.3887 11.5678 22.4886 11.5678H14.3502L14.8637 9.51038C15.0772 8.65338 15.8597 8.05166 16.7599 8.05166H24.9013ZM13.646 14.5727C13.8587 13.7043 14.639 13.0915 15.5364 13.0915H21.2263L20.7143 15.1732C20.5015 16.0447 19.7182 16.6575 18.8208 16.6575H16.8101L16.1378 19.4568C15.9219 20.3283 15.1386 20.9442 14.2381 20.9442H12.0978L13.646 14.5727Z" fill="white"/>
<path d="M45.429 17.5766V24.1852H41.2573V5.55595H54.2838V9.41778H45.429V13.8779H53.584V17.5766H45.429Z" fill="white"/>
<path d="M62.443 9.9617C63.5016 9.9617 64.4795 10.1521 65.3766 10.5328C66.2917 10.9136 67.0812 11.4303 67.7451 12.083C68.409 12.7357 68.9293 13.5062 69.3061 14.3946C69.6829 15.283 69.8713 16.2349 69.8713 17.2502C69.8713 18.2655 69.6829 19.2174 69.3061 20.1058C68.9293 20.9761 68.409 21.7376 67.7451 22.3903C67.0812 23.043 66.2917 23.5597 65.3766 23.9404C64.4795 24.3212 63.5016 24.5115 62.443 24.5115C61.3844 24.5115 60.3975 24.3302 59.4824 23.9676C58.5853 23.5869 57.8048 23.0702 57.1409 22.4175C56.477 21.7648 55.9567 20.9942 55.5799 20.1058C55.221 19.2174 55.0416 18.2655 55.0416 17.2502C55.0416 16.2349 55.23 15.283 55.6068 14.3946C55.9836 13.5062 56.495 12.7357 57.1409 12.083C57.8048 11.4303 58.5853 10.9136 59.4824 10.5328C60.3975 10.1521 61.3844 9.9617 62.443 9.9617ZM62.443 13.3884C61.9227 13.3884 61.4292 13.4881 60.9627 13.6876C60.5141 13.8689 60.1194 14.1318 59.7785 14.4762C59.4555 14.8207 59.1953 15.2287 58.998 15.7001C58.8186 16.1714 58.7288 16.6882 58.7288 17.2502C58.7288 17.8123 58.8186 18.329 58.998 18.8004C59.1774 19.2718 59.4286 19.6797 59.7516 20.0242C60.0745 20.3687 60.4603 20.6407 60.9089 20.8401C61.3575 21.0395 61.8419 21.1392 62.3623 21.1392C62.8826 21.1392 63.376 21.0395 63.8425 20.8401C64.309 20.6407 64.7128 20.3687 65.0537 20.0242C65.3946 19.6797 65.6637 19.2718 65.8611 18.8004C66.0585 18.329 66.1572 17.8123 66.1572 17.2502C66.1572 16.6882 66.0585 16.1714 65.8611 15.7001C65.6817 15.2287 65.4215 14.8207 65.0806 14.4762C64.7576 14.1318 64.3629 13.8689 63.8964 13.6876C63.4478 13.4881 62.9633 13.3884 62.443 13.3884Z" fill="white"/>
<path d="M71.0801 9.03704V5.55595H74.8212V9.03704H71.0801ZM71.0801 24.1852V10.2337H74.8212V24.1852H71.0801Z" fill="white"/>
<path d="M76.3368 24.1852V5.55595H80.1048V24.1852H76.3368Z" fill="white"/>
<path d="M81.6198 24.1852V20.2418H85.4954V24.1852H81.6198Z" fill="white"/>
<path d="M91.4212 12.3821V24.1852H87.4109V5.55595H91.9594L99.3878 17.3862V5.55595H103.398V24.1852H98.8495L91.4212 12.3821Z" fill="white"/>
<path d="M118.84 21.1936C118.158 22.2271 117.279 23.043 116.202 23.6413C115.143 24.2215 113.842 24.5115 112.299 24.5115C111.187 24.5115 110.182 24.3302 109.285 23.9676C108.406 23.5869 107.643 23.0792 106.997 22.4447C106.369 21.792 105.885 21.0214 105.544 20.133C105.203 19.2446 105.033 18.2837 105.033 17.2502C105.033 16.253 105.203 15.3102 105.544 14.4218C105.903 13.5334 106.405 12.7629 107.051 12.1102C107.697 11.4394 108.469 10.9136 109.366 10.5328C110.263 10.1521 111.25 9.9617 112.326 9.9617C113.421 9.9617 114.399 10.143 115.26 10.5056C116.121 10.8682 116.848 11.3668 117.44 12.0014C118.05 12.636 118.517 13.3884 118.84 14.2587C119.163 15.1108 119.324 16.0445 119.324 17.0599C119.324 17.3318 119.315 17.6128 119.297 17.9029C119.279 18.193 119.27 18.3562 119.27 18.3925H108.72C108.917 19.2809 109.33 19.988 109.958 20.5137C110.604 21.0395 111.411 21.3024 112.38 21.3024C113.223 21.3024 113.941 21.1392 114.533 20.8129C115.143 20.4684 115.646 20.0151 116.04 19.4531L118.84 21.1936ZM112.299 13.062C111.42 13.062 110.685 13.2887 110.092 13.7419C109.518 14.1771 109.106 14.7935 108.854 15.5913H115.556C115.359 14.7391 114.955 14.1046 114.345 13.6876C113.735 13.2705 113.053 13.062 112.299 13.062Z" fill="white"/>
<path d="M128.797 10.2337V13.606H125.406V19.2083C125.406 19.8429 125.549 20.2962 125.836 20.5681C126.141 20.822 126.608 20.9489 127.236 20.9489H128.797V24.1852H126.967C125.119 24.1852 123.773 23.7863 122.93 22.9886C122.086 22.1727 121.665 20.9761 121.665 19.3987V13.606H119.673V10.2337H121.665V6.64379H125.406V10.2337H128.797Z" fill="white"/>
<path d="M139.854 16.2168L137.97 24.1852H133.233L129.707 10.2337H133.475L135.736 19.8338L138.077 10.2337H141.845L144.16 19.8882L146.448 10.2337H150.081L146.528 24.1852H141.738L139.854 16.2168Z" fill="white"/>
<path d="M157.457 9.9617C158.516 9.9617 159.494 10.1521 160.391 10.5328C161.306 10.9136 162.096 11.4303 162.76 12.083C163.423 12.7357 163.944 13.5062 164.321 14.3946C164.697 15.283 164.886 16.2349 164.886 17.2502C164.886 18.2655 164.697 19.2174 164.321 20.1058C163.944 20.9761 163.423 21.7376 162.76 22.3903C162.096 23.043 161.306 23.5597 160.391 23.9404C159.494 24.3212 158.516 24.5115 157.457 24.5115C156.399 24.5115 155.412 24.3302 154.497 23.9676C153.6 23.5869 152.819 23.0702 152.155 22.4175C151.491 21.7648 150.971 20.9942 150.594 20.1058C150.235 19.2174 150.056 18.2655 150.056 17.2502C150.056 16.2349 150.244 15.283 150.621 14.3946C150.998 13.5062 151.509 12.7357 152.155 12.083C152.819 11.4303 153.6 10.9136 154.497 10.5328C155.412 10.1521 156.399 9.9617 157.457 9.9617ZM157.457 13.3884C156.937 13.3884 156.444 13.4881 155.977 13.6876C155.529 13.8689 155.134 14.1318 154.793 14.4762C154.47 14.8207 154.21 15.2287 154.012 15.7001C153.833 16.1714 153.743 16.6882 153.743 17.2502C153.743 17.8123 153.833 18.329 154.012 18.8004C154.192 19.2718 154.443 19.6797 154.766 20.0242C155.089 20.3687 155.475 20.6407 155.923 20.8401C156.372 21.0395 156.856 21.1392 157.377 21.1392C157.897 21.1392 158.39 21.0395 158.857 20.8401C159.323 20.6407 159.727 20.3687 160.068 20.0242C160.409 19.6797 160.678 19.2718 160.876 18.8004C161.073 18.329 161.172 17.8123 161.172 17.2502C161.172 16.6882 161.073 16.1714 160.876 15.7001C160.696 15.2287 160.436 14.8207 160.095 14.4762C159.772 14.1318 159.377 13.8689 158.911 13.6876C158.462 13.4881 157.978 13.3884 157.457 13.3884Z" fill="white"/>
<path d="M166.095 24.1852V10.2337H169.836V12.1374C170.302 11.5028 170.867 10.9952 171.531 10.6144C172.213 10.2337 172.985 10.0433 173.846 10.0433V13.8507C172.464 13.8507 171.45 14.2133 170.805 14.9386C170.177 15.6457 169.863 16.6066 169.863 17.8213V24.1852H166.095Z" fill="white"/>
<path d="M183.532 10.2337H187.784L182.482 17.1686L188 24.1852H183.344L178.957 18.4468V24.1852H175.189V5.55595H178.957V16.4887L183.532 10.2337Z" fill="white"/>
</g>
<defs>
<filter id="filter0_dd_50_45" x="0" y="0" width="192" height="36.4334" filterUnits="userSpaceOnUse" color-interpolation-filters="sRGB">
<feFlood flood-opacity="0" result="BackgroundImageFix"/>
<feColorMatrix in="SourceAlpha" type="matrix" values="0 0 0 0 0 0 0 0 0 0 0 0 0 0 0 0 0 0 127 0" result="hardAlpha"/>
<feOffset dy="4"/>
<feGaussianBlur stdDeviation="2"/>
<feComposite in2="hardAlpha" operator="out"/>
<feColorMatrix type="matrix" values="0 0 0 0 0 0 0 0 0 0 0 0 0 0 0 0 0 0 0.25 0"/>
<feBlend mode="normal" in2="BackgroundImageFix" result="effect1_dropShadow_50_45"/>
<feColorMatrix in="SourceAlpha" type="matrix" values="0 0 0 0 0 0 0 0 0 0 0 0 0 0 0 0 0 0 127 0" result="hardAlpha"/>
<feOffset dy="4"/>
<feGaussianBlur stdDeviation="2"/>
<feComposite in2="hardAlpha" operator="out"/>
<feColorMatrix type="matrix" values="0 0 0 0 0 0 0 0 0 0 0 0 0 0 0 0 0 0 0.25 0"/>
<feBlend mode="normal" in2="effect1_dropShadow_50_45" result="effect2_dropShadow_50_45"/>
<feBlend mode="normal" in="SourceGraphic" in2="effect2_dropShadow_50_45" result="shape"/>
</filter>
</defs>
</svg>
