<svg width="18" height="12" viewBox="0 0 18 12" fill="none" xmlns="http://www.w3.org/2000/svg">
<path d="M18.0001 6.00007C18.0001 8.37007 17.5951 10.2901 17.1001 10.2901C16.6051 10.2901 16.1851 8.37007 16.1851 6.00007C16.1851 3.63007 16.5901 1.71007 17.1001 1.71007C17.6101 1.71007 18.0001 3.63007 18.0001 6.00007Z" fill="#F5F5F5"/>
<path d="M15.705 6.00015C15.705 8.65515 14.535 10.8001 13.08 10.8001C11.625 10.8001 10.5 8.65515 10.5 6.00015C10.5 3.34515 11.67 1.20015 13.11 1.20015C14.55 1.20015 15.705 3.34515 15.705 6.00015Z" fill="#F5F5F5"/>
<path d="M10.2 6.00006C10.2 7.00874 9.90089 7.99477 9.3405 8.83346C8.7801 9.67215 7.98359 10.3258 7.05169 10.7118C6.11978 11.0978 5.09434 11.1988 4.10504 11.0021C3.11574 10.8053 2.20701 10.3195 1.49376 9.6063C0.78051 8.89305 0.294782 7.98432 0.0979974 6.99502C-0.0987873 6.00571 0.00220974 4.98027 0.388217 4.04837C0.774224 3.11647 1.4279 2.31996 2.26659 1.75956C3.10528 1.19916 4.09132 0.900055 5.1 0.900055C6.45261 0.900055 7.74981 1.43738 8.70625 2.39381C9.66268 3.35025 10.2 4.64745 10.2 6.00006Z" fill="#F5F5F5"/>
</svg>
