<svg width="17" height="15" viewBox="0 0 17 15" fill="none" xmlns="http://www.w3.org/2000/svg">
<path d="M16.7098 1.57012L14.8198 13.0001C14.7864 13.2006 14.7034 13.3895 14.5781 13.5495C14.4529 13.7096 14.2896 13.8356 14.103 13.9162C13.9165 13.9968 13.7127 14.0293 13.5104 14.0108C13.308 13.9922 13.1136 13.9233 12.9448 13.8101L7.70975 10.2851C7.60297 10.2132 7.5138 10.1181 7.4489 10.0069C7.384 9.89573 7.34505 9.77132 7.33496 9.64297C7.32486 9.51462 7.34388 9.38565 7.3906 9.26569C7.43731 9.14572 7.51052 9.03785 7.60475 8.95012L12.5548 4.27012C12.6017 4.21404 12.6276 4.14337 12.6282 4.07025C12.6287 3.99712 12.6038 3.92608 12.5577 3.86932C12.5115 3.81256 12.4471 3.77362 12.3754 3.75917C12.3037 3.74472 12.2293 3.75566 12.1648 3.79012L5.57975 8.20012C5.26245 8.40897 4.9025 8.54429 4.5262 8.5962C4.14989 8.6481 3.76675 8.61528 3.40475 8.50012L0.599754 7.67512C0.499994 7.6323 0.414984 7.56116 0.355247 7.47051C0.295511 7.37986 0.263672 7.27368 0.263672 7.16512C0.263672 7.05656 0.295511 6.95038 0.355247 6.85973C0.414984 6.76908 0.499994 6.69795 0.599754 6.65512L9.25475 2.87512L14.6398 0.670123L15.3448 0.400123C15.5162 0.347798 15.6982 0.339614 15.8737 0.376329C16.0491 0.413044 16.2125 0.49347 16.3487 0.610152C16.4848 0.726833 16.5893 0.875993 16.6524 1.04381C16.7155 1.21162 16.7352 1.39265 16.7098 1.57012Z" fill="#F5F5F5"/>
</svg>
