<svg width="30" height="30" viewBox="0 0 30 30" fill="none" xmlns="http://www.w3.org/2000/svg">
<path d="M24 9.46498C23.6335 10.2111 23.0329 10.8169 22.29 11.19V11.775C22.2925 13.6772 21.7862 15.5454 20.8236 17.1861C19.861 18.8267 18.4771 20.1801 16.8153 21.1058C15.1536 22.0315 13.2745 22.496 11.3728 22.451C9.47114 22.406 7.61611 21.8533 6 20.85C6.25951 20.8726 6.52049 20.8726 6.78 20.85C8.50974 20.8459 10.1866 20.2534 11.535 19.17C10.7562 19.1319 10.0047 18.8715 9.36936 18.4196C8.73401 17.9677 8.24145 17.3431 7.95 16.62C8.19716 16.668 8.44823 16.6931 8.7 16.695C8.97703 16.6881 9.25299 16.658 9.525 16.605C8.82178 16.3605 8.18858 15.9487 7.68 15.405C7.02164 14.7134 6.63312 13.8086 6.585 12.855C7.04649 13.1119 7.5583 13.2654 8.085 13.305C8.17942 13.3199 8.27558 13.3199 8.37 13.305L8.16 13.14C7.54227 12.6361 7.08378 11.964 6.84 11.205C6.72074 10.8471 6.65996 10.4723 6.66 10.095C6.66565 9.44793 6.836 8.81297 7.155 8.24998C7.25525 8.40609 7.37082 8.55181 7.5 8.68498C7.725 8.93998 7.965 9.19498 8.22 9.43498C8.94973 10.1359 9.78488 10.7179 10.695 11.16C11.0524 11.3478 11.4234 11.5082 11.805 11.64C12.1051 11.7458 12.4105 11.8359 12.72 11.91C13.3396 12.0617 13.9727 12.1521 14.61 12.18H14.88C14.7114 11.546 14.7114 10.879 14.88 10.245C14.9386 10.0087 15.0295 9.78154 15.15 9.56998C15.27 9.36977 15.4054 9.17919 15.555 8.99998L15.66 8.86498C16.0011 8.4654 16.4195 8.13886 16.89 7.90498C17.1206 7.7955 17.3619 7.71005 17.61 7.64998L18 7.58998C18.1847 7.57454 18.3703 7.57454 18.555 7.58998C19.0741 7.59045 19.5874 7.69868 20.0625 7.90782C20.5376 8.11697 20.9641 8.42247 21.315 8.80498C21.5022 8.79083 21.6879 8.76072 21.87 8.71498C22.323 8.6252 22.7585 8.46313 23.16 8.23498C23.321 8.1526 23.472 8.05193 23.61 7.93498C23.388 8.72441 22.9073 9.4164 22.245 9.89998C22.8518 9.8643 23.4468 9.71683 24 9.46498Z" fill="#F5F5F5"/>
</svg>
